<svg height="512" viewBox="0 0 128 128" width="512" xmlns="http://www.w3.org/2000/svg"><g><g><path d="m56.417 112.625h15.166a0 0 0 0 1 0 0v1.292a7.583 7.583 0 0 1 -7.583 7.583 7.583 7.583 0 0 1 -7.583-7.583v-1.292a0 0 0 0 1 0 0z" fill="#bba227"/><path d="m52.5 106.875h23v6.791h-23z" fill="#f3d232"/><path d="m52.5 103.167c0-9.962-17.25-15.832-17.25-40.73 0-15.437 12.87-27.437 28.75-27.437s28.75 12 28.75 27.437c0 24.9-17.25 30.768-17.25 40.73z" fill="#f3d232"/><path d="m49.312 102.093h29.375v5.787h-29.375z" fill="#bba227"/></g><g fill="#20334d"><path d="m90.215 77.592a1.752 1.752 0 0 0 -2.3.922c-.312.73-.651 1.457-1.007 2.162a1.75 1.75 0 1 0 3.123 1.58c.39-.771.761-1.568 1.1-2.366a1.751 1.751 0 0 0 -.916-2.298z"/><path d="m64 33.25c-17.1 0-30.5 12.822-30.5 29.19 0 15.854 6.857 24.45 11.864 30.726 2.146 2.69 3.932 4.943 4.805 7.177h-.857a1.75 1.75 0 0 0 -1.75 1.75v5.786a1.75 1.75 0 0 0 1.75 1.75h1.438v4.041a1.751 1.751 0 0 0 1.75 1.75h2.3a9.318 9.318 0 0 0 18.4 0h2.3a1.751 1.751 0 0 0 1.75-1.75v-4.041h1.437a1.749 1.749 0 0 0 1.75-1.75v-5.786a1.749 1.749 0 0 0 -1.75-1.75h-.856c.873-2.234 2.659-4.487 4.8-7.177 1.353-1.7 2.886-3.619 4.348-5.769a1.75 1.75 0 1 0 -2.895-1.967c-1.386 2.039-2.811 3.825-4.189 5.553-2.593 3.251-4.875 6.119-5.757 9.36h-4.013v-16.468h2.187a5.693 5.693 0 0 0 5.688-5.687v-.25a5.688 5.688 0 1 0 -11.375 0v2.437h-5.25v-2.437a5.688 5.688 0 1 0 -11.375 0v.25a5.693 5.693 0 0 0 5.687 5.687h2.188v16.468h-4.018c-.883-3.241-3.164-6.109-5.757-9.36-4.945-6.199-11.1-13.914-11.1-28.543 0-14.406 11.86-25.69 27-25.69s27 11.284 27 25.69a43.612 43.612 0 0 1 -1.238 10.593 1.75 1.75 0 1 0 3.394.852 47.05 47.05 0 0 0 1.344-11.445c0-16.368-13.4-29.19-30.5-29.19zm6.125 44.688a2.188 2.188 0 1 1 4.375 0v.25a2.19 2.19 0 0 1 -2.188 2.187h-2.187zm-2 40.1a5.824 5.824 0 0 1 -9.749-2.622h11.252a5.839 5.839 0 0 1 -1.506 2.626zm5.628-6.122h-19.503v-2.291h2.17a1.75 1.75 0 0 0 0-3.5h-5.358v-2.286h25.875v2.286h-12.937a1.75 1.75 0 0 0 0 3.5h9.75zm-18.066-31.541a2.189 2.189 0 0 1 -2.187-2.187v-.25a2.188 2.188 0 1 1 4.375 0v2.437zm5.688 3.5h5.25v16.468h-5.25z"/><path d="m74.773 41.536a1.75 1.75 0 1 0 -1.445 3.187 20.067 20.067 0 0 1 8.794 7.611 1.75 1.75 0 1 0 2.968-1.855 23.555 23.555 0 0 0 -10.317-8.943z"/><path d="m64 25.942a1.75 1.75 0 0 0 1.75-1.75v-17.692a1.75 1.75 0 0 0 -3.5 0v17.692a1.75 1.75 0 0 0 1.75 1.75z"/><path d="m42.706 30.367a1.75 1.75 0 1 0 3.031-1.75l-8.846-15.317a1.75 1.75 0 1 0 -3.032 1.75z"/><path d="m30.617 42.456-15.317-8.847a1.75 1.75 0 1 0 -1.75 3.032l15.322 8.846a1.75 1.75 0 1 0 1.75-3.031z"/><path d="m26.192 63.75a1.75 1.75 0 0 0 -1.75-1.75h-17.692a1.75 1.75 0 0 0 0 3.5h17.692a1.75 1.75 0 0 0 1.75-1.75z"/><path d="m28.867 82.013-15.322 8.846a1.75 1.75 0 0 0 1.75 3.032l15.322-8.847a1.75 1.75 0 1 0 -1.75-3.031z"/><path d="m82.9 31.008a1.748 1.748 0 0 0 2.39-.641l8.847-15.322a1.75 1.75 0 0 0 -3.032-1.75l-8.842 15.322a1.751 1.751 0 0 0 .637 2.391z"/><path d="m98.259 45.722a1.747 1.747 0 0 0 .874-.235l15.322-8.846a1.75 1.75 0 0 0 -1.75-3.032l-15.322 8.847a1.75 1.75 0 0 0 .876 3.266z"/><path d="m121.25 62h-17.692a1.75 1.75 0 1 0 0 3.5h17.692a1.75 1.75 0 0 0 0-3.5z"/><path d="m114.455 90.859-15.322-8.846a1.75 1.75 0 1 0 -1.75 3.031l15.322 8.847a1.75 1.75 0 1 0 1.75-3.032z"/></g></g></svg>