<svg id="Capa_1" enable-background="new 0 0 512 512" height="512" viewBox="0 0 512 512" width="512" xmlns="http://www.w3.org/2000/svg"><g><path d="m512 256c0 141.385-114.615 256-256 256s-256-114.615-256-256 114.615-256 256-256 256 114.615 256 256z" fill="#44bfd7"/><path d="m483 238c0 122.055-98.945 221-221 221s-221-98.945-221-221 98.945-221 221-221 221 98.945 221 221z" fill="#60c8dd"/><path d="m487.889 299.29-281.09 176.671-176.671-281.089 281.089-176.671z" fill="#464646"/><path d="m359.062 96.202-59.266 37.25c-9.352 5.878-21.698 3.062-27.576-6.29l-37.25-59.266c-5.878-9.352-3.062-21.698 6.29-27.576l59.266-37.25c9.352-5.878 21.698-3.062 27.576 6.29l37.25 59.266c5.878 9.351 3.062 21.698-6.29 27.576zm-144.928 220.423-30.157-47.981c-9.795-15.584-30.369-20.278-45.954-10.482l-47.981 30.157c-9.352 5.878-12.168 18.224-6.29 27.576l37.25 59.266c5.878 9.352 18.224 12.168 27.576 6.29l59.266-37.25c9.352-5.878 12.168-18.225 6.29-27.576z" fill="#ffea06"/><path d="m331.377 88.799-8.467 5.321c-18.47 11.609-42.854 6.047-54.462-12.423l-5.321-8.467c-11.609-18.47-6.047-42.854 12.423-54.462l24.976-15.698c9.352-5.878 21.698-3.062 27.576 6.29l15.698 24.976c11.609 18.47 6.047 42.854-12.423 54.463zm-138.795 193.536-15.698-24.976c-5.878-9.352-18.224-12.168-27.576-6.29l-24.976 15.698c-18.47 11.609-24.032 35.992-12.423 54.462l5.321 8.467c11.609 18.47 35.992 24.032 54.462 12.423l8.467-5.321c18.47-11.609 24.032-35.993 12.423-54.463z" fill="#fff36c"/><path d="m427.974 205.843-59.266 37.25c-9.352 5.878-21.698 3.062-27.576-6.29l-37.25-59.266c-5.878-9.352-3.062-21.698 6.29-27.576l35.332-22.207c22.57-14.186 52.367-7.389 66.553 15.181l22.207 35.332c5.878 9.352 3.062 21.698-6.29 27.576z" fill="#f29500"/><path d="m400.289 198.44-8.467 5.321c-18.47 11.609-42.854 6.047-54.462-12.423l-5.321-8.467c-11.609-18.47-6.047-42.854 12.423-54.462l24.976-15.698c9.352-5.878 21.698-3.062 27.576 6.29l15.698 24.976c11.609 18.471 6.047 42.854-12.423 54.463z" fill="#ffb52d"/><path d="m317.909 275.022-59.266 37.25c-9.352 5.878-21.698 3.062-27.576-6.29l-37.25-59.266c-5.878-9.352-3.062-21.698 6.29-27.576l59.266-37.25c9.352-5.878 21.698-3.062 27.576 6.29l37.25 59.266c5.878 9.352 3.062 21.698-6.29 27.576zm-34.862 151.244-37.25-59.266c-5.878-9.352-18.224-12.168-27.576-6.29l-59.266 37.25c-9.352 5.878-12.168 18.224-6.29 27.576l37.25 59.266c5.878 9.352 18.224 12.168 27.576 6.29l59.266-37.25c9.351-5.878 12.168-18.224 6.29-27.576z" fill="#ea552d"/><path d="m290.224 267.619-8.467 5.321c-18.47 11.609-42.854 6.047-54.462-12.423l-5.321-8.467c-11.609-18.47-6.047-42.854 12.423-54.462l24.976-15.698c9.352-5.878 21.698-3.062 27.576 6.29l15.698 24.976c11.609 18.47 6.047 42.854-12.423 54.463zm-28.729 124.358-15.698-24.977c-5.878-9.352-18.224-12.168-27.576-6.29l-24.976 15.698c-18.47 11.609-24.032 35.992-12.423 54.462l5.321 8.467c11.609 18.47 35.992 24.032 54.462 12.423l8.467-5.321c18.47-11.609 24.032-35.992 12.423-54.462z" fill="#f76937"/><path d="m248.997 165.38-59.266 37.25c-9.352 5.878-21.698 3.062-27.576-6.29l-37.25-59.266c-5.878-9.352-3.062-21.698 6.29-27.576l49.142-30.887c14.943-9.392 34.67-4.892 44.062 10.051l30.887 49.142c5.879 9.352 3.062 21.698-6.289 27.576zm144.115 191.708-37.25-59.266c-5.878-9.352-18.224-12.168-27.576-6.29l-59.266 37.25c-9.352 5.878-12.168 18.224-6.29 27.576l37.25 59.266c5.878 9.352 18.224 12.168 27.576 6.29l59.266-37.25c9.352-5.878 12.168-18.224 6.29-27.576z" fill="#3d4ec6"/><path d="m221.312 157.977-8.467 5.321c-18.47 11.609-42.854 6.047-54.462-12.423l-5.321-8.467c-11.609-18.47-6.047-42.854 12.423-54.462l24.976-15.698c9.352-5.878 21.698-3.062 27.576 6.29l15.698 24.976c11.609 18.471 6.047 42.854-12.423 54.463zm150.248 164.821-15.698-24.976c-5.878-9.352-18.224-12.168-27.576-6.29l-24.976 15.698c-18.47 11.609-24.032 35.992-12.423 54.462l5.321 8.467c11.609 18.47 35.992 24.032 54.462 12.423l8.467-5.321c18.47-11.609 24.032-35.993 12.423-54.463z" fill="#5766ce"/><path d="m138.931 234.559-59.266 37.25c-9.352 5.878-21.698 3.062-27.576-6.29l-37.25-59.266c-5.878-9.352-3.062-21.698 6.29-27.576l40.538-25.479c19.695-12.379 45.696-6.448 58.075 13.247l25.479 40.538c5.879 9.352 3.062 21.698-6.29 27.576zm364.246 53.35-27.973-44.507c-11.001-17.503-34.108-22.774-51.612-11.773l-44.507 27.974c-9.352 5.878-12.168 18.224-6.29 27.576l37.25 59.266c5.878 9.352 18.224 12.168 27.576 6.29l59.266-37.25c9.352-5.878 12.168-18.224 6.29-27.576z" fill="#5db33a"/><path d="m111.247 227.156-8.467 5.321c-18.47 11.609-42.854 6.047-54.462-12.423l-5.321-8.467c-11.609-18.47-6.047-42.854 12.423-54.462l24.976-15.698c9.352-5.878 21.698-3.062 27.576 6.29l15.698 24.976c11.609 18.47 6.047 42.854-12.423 54.463zm370.378 26.464-15.698-24.976c-5.878-9.352-18.224-12.168-27.576-6.29l-24.976 15.698c-18.47 11.609-24.032 35.992-12.423 54.462l5.321 8.467c11.609 18.47 35.992 24.032 54.462 12.423l8.467-5.321c18.47-11.61 24.032-35.993 12.423-54.463z" fill="#6dc54a"/><path d="m181.983 128.394c-9.715-31.396-17.075-71.473 3.031-84.109 9.109-5.727 21.734-4.377 37.525 4.008 2.439 1.295 3.366 4.322 2.071 6.761s-4.323 3.365-6.761 2.071c-8.524-4.525-20.218-8.96-27.515-4.373-11.161 7.015-10.712 34.188 1.201 72.687 12.216 39.48 34.967 87.177 64.385 135.105l7.727-36.914c.565-2.702 3.21-4.437 5.918-3.869 2.703.565 4.436 3.215 3.869 5.918l-10.244 48.939c-.493 2.357-2.572 3.977-4.889 3.977-.339 0-.684-.035-1.029-.107l-48.939-10.244c-2.703-.565-4.435-3.215-3.87-5.918.566-2.702 3.213-4.435 5.918-3.869l37.317 7.812c-29.989-48.796-53.217-97.487-65.715-137.875zm279.017 125.606h-50c-2.762 0-5 2.238-5 5s2.238 5 5 5h38.463c-29.334 30.725-72.907 65.083-121.232 95.455-50.516 31.751-101.252 56.328-142.861 69.203-38.5 11.914-65.673 12.362-72.688 1.201-4.585-7.296-.152-18.989 4.374-27.515 1.294-2.439.367-5.466-2.072-6.761s-5.465-.366-6.761 2.071c-8.383 15.792-9.731 28.417-4.007 37.525 5.874 9.345 17.672 12.756 31.775 12.756 16.239 0 35.532-4.525 52.335-9.725 42.418-13.126 93.994-38.089 145.227-70.29 49.36-31.022 92.374-64.883 122.448-96.279v37.359c0 2.762 2.238 5 5 5s5-2.238 5-5v-50c-.001-2.762-2.239-5-5.001-5z" fill="#fff"/></g></svg>