<svg id="Capa_1" enable-background="new 0 0 511 511" height="512" viewBox="0 0 511 511" width="512" xmlns="http://www.w3.org/2000/svg"><g><circle cx="255.5" cy="255.5" fill="#ffc265" r="248"/><path d="m255.5 476.5c-132.437 0-240.619-103.812-247.631-234.5-.24 4.47-.369 8.97-.369 13.5 0 136.967 111.033 248 248 248s248-111.033 248-248c0-4.53-.13-9.03-.369-13.5-7.012 130.688-115.195 234.5-247.631 234.5z" fill="#ffb541"/><circle cx="255.5" cy="255.5" fill="#ffe9c8" r="207.79"/><path d="m255.5 436.29c-110.222 0-200.384-85.825-207.342-194.29-.286 4.465-.448 8.963-.448 13.5 0 114.759 93.031 207.79 207.79 207.79s207.79-93.031 207.79-207.79c0-4.537-.162-9.035-.448-13.5-6.958 108.465-97.12 194.29-207.342 194.29z" fill="#ffdca7"/><path d="m333.86 348.86h-156.72c-8.284 0-15-6.716-15-15v-156.72c0-8.284 6.716-15 15-15h156.72c8.284 0 15 6.716 15 15v156.72c0 8.284-6.716 15-15 15z" fill="#ff4755"/><path d="m333.86 330.86h-156.72c-8.284 0-15-6.716-15-15v18c0 8.284 6.716 15 15 15h156.72c8.284 0 15-6.716 15-15v-18c0 8.284-6.716 15-15 15z" fill="#fc2b3a"/><g><path d="m162.14 261.499c-4.143 0-7.5 3.358-7.5 7.5v64.862c0 12.407 10.094 22.5 22.5 22.5h156.72c12.406 0 22.5-10.093 22.5-22.5v-156.721c0-12.407-10.094-22.5-22.5-22.5h-156.72c-12.406 0-22.5 10.093-22.5 22.5v61.858c0 4.142 3.357 7.5 7.5 7.5s7.5-3.358 7.5-7.5v-61.858c0-4.136 3.364-7.5 7.5-7.5h156.72c4.136 0 7.5 3.364 7.5 7.5v156.72c0 4.136-3.364 7.5-7.5 7.5h-156.72c-4.136 0-7.5-3.364-7.5-7.5v-64.862c0-4.142-3.358-7.499-7.5-7.499z"/><path d="m436.166 74.834c-48.258-48.257-112.419-74.834-180.666-74.834s-132.408 26.577-180.666 74.834c-48.258 48.258-74.834 112.419-74.834 180.666s26.576 132.408 74.834 180.666c48.258 48.257 112.419 74.834 180.666 74.834 55.879 0 108.952-17.711 153.481-51.218 3.31-2.49 3.974-7.192 1.483-10.502s-7.191-3.975-10.503-1.483c-41.907 31.535-91.861 48.203-144.461 48.203-64.24 0-124.635-25.016-170.06-70.441-45.423-45.424-70.44-105.819-70.44-170.059s25.017-124.635 70.44-170.059c45.425-45.425 105.82-70.441 170.06-70.441s124.635 25.016 170.06 70.441c45.423 45.424 70.44 105.819 70.44 170.059 0 33.317-6.683 65.569-19.861 95.859-12.732 29.263-30.908 55.364-54.023 77.577-2.987 2.87-3.082 7.618-.212 10.605 2.87 2.986 7.618 3.081 10.605.211 24.552-23.592 43.859-51.318 57.386-82.408 14.003-32.19 21.105-66.455 21.105-101.844 0-68.247-26.576-132.408-74.834-180.666z"/><path d="m113.874 103.267c-2.93-2.929-7.678-2.929-10.607 0-40.663 40.663-63.057 94.727-63.057 152.233s22.394 111.57 63.057 152.233 94.727 63.057 152.233 63.057 111.57-22.394 152.233-63.057c40.662-40.663 63.056-94.727 63.056-152.233s-22.394-111.57-63.056-152.233c-36.829-36.828-85.695-59.047-137.6-62.562-51.409-3.482-102.319 11.506-143.367 42.2-3.317 2.48-3.996 7.18-1.516 10.497 2.481 3.317 7.18 3.996 10.498 1.515 38.18-28.548 85.547-42.488 133.371-39.247 48.283 3.27 93.744 23.94 128.006 58.203 78.093 78.093 78.093 205.16 0 283.253-78.092 78.093-205.16 78.093-283.252 0-37.829-37.83-58.663-88.126-58.663-141.626s20.834-103.797 58.664-141.626c2.929-2.929 2.929-7.678 0-10.607z"/></g></g></svg>